<svg xmlns="http://www.w3.org/2000/svg" viewBox="0 0 80 80">
<circle cx="40" cy="40" r="40" fill="black"/>
<path d="M40 28H54.1304V66H40V28Z" fill="white"/>
<path d="M65 38.3143C65 44.0107 60.3769 48.6286 54.6739 48.6286C48.971 48.6286 44.3478 44.0107 44.3478 38.3143C44.3478 32.6179 48.971 28 54.6739 28C60.3769 28 65 32.6179 65 38.3143Z" fill="white"/>
<path d="M65 55.6857C65 61.3821 60.3769 66 54.6739 66C48.971 66 44.3478 61.3821 44.3478 55.6857C44.3478 49.9893 48.971 45.3714 54.6739 45.3714C60.3769 45.3714 65 49.9893 65 55.6857Z" fill="white"/>
<path d="M57.8478 38.8571C57.8478 41.2556 55.9012 43.2 53.5 43.2C51.0988 43.2 49.1522 41.2556 49.1522 38.8571C49.1522 36.4586 51.0988 34.5143 53.5 34.5143C55.9012 34.5143 57.8478 36.4586 57.8478 38.8571Z" fill="var(--gradient-primary)"/>
<path d="M47.6087 50.8H53.5V59.4857H47.6087V50.8Z" fill="var(--gradient-primary)"/>
<path d="M57.8478 55.1429C57.8478 57.5414 55.9012 59.4857 53.5 59.4857C51.0988 59.4857 49.1522 57.5414 49.1522 55.1429C49.1522 52.7444 51.0988 50.8 53.5 50.8C55.9012 50.8 57.8478 52.7444 57.8478 55.1429Z" fill="var(--gradient-primary)"/>
<path d="M47.6087 34.5143H53.5V43.2H47.6087V34.5143Z" fill="var(--gradient-primary)"/>
<rect x="17" y="17" width="30" height="7" fill="white"/>
<rect x="28" y="24" width="8" height="42" fill="white"/>
</svg>
