<svg width="20" height="24" viewBox="0 0 20 24" fill="none" xmlns="http://www.w3.org/2000/svg">
<path d="M11 3.11371C11 1.88678 10.5523 2.00294 10 2.00294C9.44772 2.00294 9 1.88678 9 3.11371V20.8862C9 22.1132 9.44772 21.9971 10 21.9971C10.5523 21.9971 11 22.1132 11 20.8862V3.11371Z" fill="url(#paint0_linear_54_3)"/>
<path d="M16 2H4C3.44772 2 3 2.22386 3 2.5C3 2.77614 3.44772 3 4 3H16C16.5523 3 17 2.77614 17 2.5C17 2.22386 16.5523 2 16 2Z" fill="url(#paint1_linear_54_3)"/>
<path d="M16 21H4C3.44772 21 3 21.2239 3 21.5C3 21.7761 3.44772 22 4 22H16C16.5523 22 17 21.7761 17 21.5C17 21.2239 16.5523 21 16 21Z" fill="url(#paint2_linear_54_3)"/>
<defs>
<linearGradient id="paint0_linear_54_3" x1="9" y1="0.892201" x2="9" y2="23.1078" gradientUnits="userSpaceOnUse">
<stop stop-color="#0E0E0E"/>
<stop offset="1"/>
</linearGradient>
<linearGradient id="paint1_linear_54_3" x1="8" y1="2" x2="8" y2="12" gradientUnits="userSpaceOnUse">
<stop stop-color="#0E0E0E"/>
<stop offset="1"/>
</linearGradient>
<linearGradient id="paint2_linear_54_3" x1="8" y1="12" x2="8" y2="22" gradientUnits="userSpaceOnUse">
<stop stop-color="#0E0E0E"/>
<stop offset="1"/>
</linearGradient>
</defs>
</svg>
