<svg width="1500" height="800" viewBox="0 0 1500 800" fill="none" xmlns="http://www.w3.org/2000/svg">
    <g clip-path="url(#clip0_2_6)">
        <path d="M1259.67 276.327H1304V767H1259.67V276.327ZM1093.42 445.337H1137.75V767H1093.42V445.337ZM949.333 336.298L905 200V767H949.333V336.298Z"
              fill="#3520A0"/>
        <path d="M1229.05 265.675C1224.62 255.7 1184.72 162.6 1155.9 129.35C1124.87 96.1 1089.4 80.5833 1042.85 80.5833C1030.66 80.5833 1020.68 90.5583 1020.68 102.75C1020.68 114.942 1030.66 124.917 1042.85 124.917C1077.21 124.917 1099.38 134.892 1121.54 159.275C1142.6 182.55 1175.85 255.7 1186.93 282.3C1190.26 291.167 1199.12 295.6 1206.88 295.6C1210.21 295.6 1212.42 294.492 1215.75 293.383C1227.94 290.058 1233.48 276.758 1229.05 265.675Z"
              fill="#409EC6"/>
        <path d="M1260.08 246.833H1304.42V446.333H1260.08V246.833ZM1093.83 315.55H1138.17V446.333H1093.83V315.55ZM949.75 271.217L905.417 215.8V446.333H949.75V271.217Z"
              fill="#3520A0"/>
        <circle cx="927" cy="292" r="10" fill="#FFFC3E"/>
        <circle cx="1115" cy="525" r="10" fill="#FFFC3E"/>
        <circle cx="1115" cy="490" r="10" fill="#FFFC3E"/>
        <circle cx="1115" cy="455" r="10" fill="#FFFC3E"/>
        <circle cx="1115" cy="420" r="10" fill="#FFFC3E"/>
        <circle cx="1115" cy="385" r="10" fill="#FFFC3E"/>
        <circle cx="1115" cy="350" r="10" fill="#FFFC3E"/>
        <circle cx="1283" cy="454" r="10" fill="#FFFC3E"/>
        <circle cx="1283" cy="419" r="10" fill="#FFFC3E"/>
        <circle cx="1283" cy="384" r="10" fill="#FFFC3E"/>
        <circle cx="1283" cy="349" r="10" fill="#FFFC3E"/>
        <circle cx="1283" cy="314" r="10" fill="#FFFC3E"/>
        <circle cx="1283" cy="279" r="10" fill="#FFFC3E"/>
        <path d="M1326.58 205.825L1150.36 286.733C1121.54 300.033 1082.75 307.792 1049.5 307.792C995.192 307.792 949.75 266.783 949.75 216.908C949.75 167.033 994.083 126.025 1049.5 126.025C1061.69 126.025 1071.67 116.05 1071.67 103.858C1071.67 91.6667 1061.69 81.6917 1049.5 81.6917C969.7 80.5833 905.417 141.542 905.417 215.8C905.417 290.058 969.7 351.017 1049.5 351.017C1089.4 351.017 1134.84 342.15 1169.2 326.633L1326.58 254.592V205.825Z"
              fill="#409EC6"/>
        <path d="M1219.24 201.314L1254.51 185.166L1270.66 220.433L1235.39 236.581L1219.24 201.314Z" fill="#B51818"/>
        <path d="M1181.39 185.875C1181.39 189.696 1182.91 193.361 1185.61 196.063C1188.31 198.765 1191.98 200.283 1195.8 200.283C1199.62 200.283 1203.29 198.765 1205.99 196.063C1208.69 193.361 1210.21 189.696 1210.21 185.875C1210.21 182.054 1208.69 178.389 1205.99 175.687C1203.29 172.985 1199.62 171.467 1195.8 171.467C1191.98 171.467 1188.31 172.985 1185.61 175.687C1182.91 178.389 1181.39 182.054 1181.39 185.875Z"
              fill="#D5A763"/>
        <path d="M1137.06 205.825C1137.06 209.646 1138.58 213.311 1141.28 216.013C1143.98 218.715 1147.65 220.233 1151.47 220.233C1155.29 220.233 1158.95 218.715 1161.65 216.013C1164.36 213.311 1165.87 209.646 1165.87 205.825C1165.87 202.004 1164.36 198.339 1161.65 195.637C1158.95 192.935 1155.29 191.417 1151.47 191.417C1147.65 191.417 1143.98 192.935 1141.28 195.637C1138.58 198.339 1137.06 202.004 1137.06 205.825Z"
              fill="#D5A763"/>
        <path d="M1296.66 132.675C1296.66 136.496 1298.18 140.161 1300.88 142.863C1303.58 145.565 1307.25 147.083 1311.07 147.083C1314.89 147.083 1318.55 145.565 1321.25 142.863C1323.96 140.161 1325.48 136.496 1325.48 132.675C1325.48 128.854 1323.96 125.189 1321.25 122.487C1318.55 119.785 1314.89 118.267 1311.07 118.267C1307.25 118.267 1303.58 119.785 1300.88 122.487C1298.18 125.189 1296.66 128.854 1296.66 132.675Z"
              fill="#D5A763"/>
        <path d="M1252.33 152.625C1252.33 156.446 1253.84 160.111 1256.55 162.813C1259.25 165.515 1262.91 167.033 1266.73 167.033C1270.55 167.033 1274.22 165.515 1276.92 162.813C1279.62 160.111 1281.14 156.446 1281.14 152.625C1281.14 148.804 1279.62 145.139 1276.92 142.437C1274.22 139.735 1270.55 138.217 1266.73 138.217C1262.91 138.217 1259.25 139.735 1256.55 142.437C1253.84 145.139 1252.33 148.804 1252.33 152.625Z"
              fill="#D5A763"/>
        <path d="M1116.81 254.019C1133.06 255.313 1138.35 276.524 1124.61 285.295L1035.8 341.984C1026.01 348.235 1012.97 343.04 1010.16 331.767L993.942 266.717C991.131 255.444 1000.2 244.736 1011.79 245.658L1116.81 254.019Z"
              fill="#FFF043" fill-opacity="0.3"/>
        <path d="M1148.81 242.019C1165.06 243.313 1170.35 264.524 1156.61 273.295L1067.8 329.984C1058.01 336.235 1044.97 331.04 1042.16 319.767L1025.94 254.717C1023.13 243.444 1032.2 232.736 1043.79 233.658L1148.81 242.019Z"
              fill="#FFF043" fill-opacity="0.3"/>
        <path d="M1249 241.292L1151.47 285.625L1127.08 282.3C1121.54 281.192 1117.11 275.65 1117.11 270.108L1120.43 241.292C1121.54 230.208 1128.19 221.342 1138.17 216.908L1202.45 188.092C1212.43 183.658 1223.51 188.092 1227.94 198.067L1249 241.292ZM1326.58 131.567L1255.65 163.708C1245.68 168.142 1241.24 179.225 1245.67 189.2L1265.62 233.533L1325.48 205.825V131.567H1326.58Z"
              fill="#B51818"/>
        <circle cx="927" cy="642" r="10" fill="#FFFC3E"/>
        <circle cx="927" cy="607" r="10" fill="#FFFC3E"/>
        <circle cx="927" cy="572" r="10" fill="#FFFC3E"/>
        <circle cx="927" cy="537" r="10" fill="#FFFC3E"/>
        <circle cx="927" cy="502" r="10" fill="#FFFC3E"/>
        <circle cx="927" cy="467" r="10" fill="#FFFC3E"/>
        <circle cx="927" cy="432" r="10" fill="#FFFC3E"/>
        <circle cx="927" cy="397" r="10" fill="#FFFC3E"/>
        <circle cx="927" cy="362" r="10" fill="#FFFC3E"/>
        <circle cx="927" cy="327" r="10" fill="#FFFC3E"/>
        <path d="M1536.89 372.498L1531.3 298.452L1553.56 258.888C1556.93 259.588 1560.28 259.868 1563.79 259.868C1591.53 259.868 1614.08 237.356 1614.08 209.664C1614.08 202.524 1612.53 195.818 1610.01 189.812C1614.22 184.212 1616.6 176.946 1616.6 169.106C1616.6 148.414 1599.79 131.628 1579.06 131.628C1573.17 131.628 1567.57 133.028 1562.53 135.408C1561.46 131.222 1559.51 127.358 1556.9 123.984C1556.65 132.062 1554.56 139.972 1550.76 147.014C1553 153.734 1554.13 160.86 1554.13 168.126C1554.13 205.184 1523.86 235.396 1486.76 235.396C1484.93 235.396 1483.25 235.256 1481.43 235.116L1474.7 247.114C1479.72 249.284 1485.27 250.488 1491.09 250.488C1493.05 250.488 1495.02 250.348 1496.84 250.068L1514.76 283.22C1514.38 301.448 1509.9 358.232 1508.93 370.188C1495.9 369.362 1482.16 368.774 1467.9 368.466C1466.97 368.452 1466.03 368.438 1465.08 368.41C1462.24 368.368 1459.38 368.326 1456.49 368.298L1450.46 267.134L1475.26 222.95C1478.9 223.65 1482.69 224.07 1486.6 224.07C1517.71 224.07 1542.78 198.898 1542.78 167.986C1542.78 160.16 1541.1 152.614 1538.15 145.754C1542.78 139.048 1545.45 130.928 1545.45 122.122C1545.45 99.05 1526.67 80.318 1503.56 80.318C1496.98 80.318 1490.81 81.718 1485.21 84.504C1481.15 68.572 1465.33 56 1447.11 56C1429.33 56 1414.9 67.872 1410.69 83.244C1407.05 81.858 1403.14 81.158 1398.93 81.158C1380.15 81.158 1365.03 96.39 1365.03 114.996C1365.03 122.822 1367.68 130.088 1372.17 135.828C1364.33 144.074 1359.56 155.134 1359.56 167.44C1359.56 192.878 1380.15 213.444 1405.65 213.444C1407.89 213.444 1409.99 213.304 1412.1 213.024L1432.12 250.068C1431.63 269.808 1426.9 348.404 1425.68 368.368C1423.79 368.396 1421.9 368.438 1420.02 368.466V368.55C1406.85 368.872 1394.13 369.432 1382.04 370.202C1381.02 357.42 1376.6 301.546 1376.24 283.64L1394.16 250.502C1395.98 250.768 1397.95 250.922 1399.91 250.922C1406.3 250.922 1412.36 249.466 1417.73 246.862L1405.65 224.63C1373.99 224.63 1348.36 198.898 1348.36 167.44C1348.36 155.694 1351.87 144.494 1358.44 134.988C1355.23 128.842 1353.69 121.982 1353.69 114.996C1353.69 113.96 1353.73 112.924 1353.79 111.902C1341.32 114.814 1331.48 124.082 1328.47 135.828C1323.43 133.308 1317.97 132.062 1311.94 132.062C1291.21 132.062 1274.4 148.834 1274.4 169.526C1274.4 176.946 1276.78 184.212 1280.99 190.232C1278.33 196.378 1276.92 203.098 1276.92 210.084C1276.92 237.776 1299.47 260.288 1327.21 260.288C1330.72 260.288 1334.07 259.868 1337.44 259.308L1359.7 298.886L1354.14 372.498C1301.38 377.846 1266 387.688 1266 399H1625C1625 387.674 1589.66 377.846 1536.89 372.498ZM1359.99 280.98L1346.68 256.508C1351.59 254.408 1356.2 251.608 1360.13 248.122C1360.27 247.982 1360.41 247.982 1360.55 247.842C1360.41 253.148 1360.13 273.014 1359.99 280.98ZM1375.54 245.462H1375.96C1378.62 246.862 1381.55 247.982 1384.64 248.682L1375.82 266.294C1375.68 261.394 1375.54 248.542 1375.54 245.462ZM1432 230.552L1422.18 210.952C1425.54 210.112 1428.91 208.852 1431.86 207.312H1432.28C1432.28 210.672 1432.14 225.092 1432 230.552ZM1449.1 209.972C1449.38 210.112 1449.52 210.112 1449.66 210.252C1454.15 214.172 1459.2 217.252 1464.67 219.632L1449.81 246.932C1449.52 237.972 1449.38 215.712 1449.1 209.972ZM1515.18 266.294L1506.36 248.682C1509.45 247.982 1512.38 246.862 1515.04 245.462H1515.46C1515.32 248.542 1515.32 261.394 1515.18 266.294ZM1530.45 247.842C1530.59 247.982 1530.73 247.982 1530.87 248.122C1534.8 251.608 1539.41 254.408 1544.32 256.508L1531.01 280.98C1530.87 273.014 1530.59 253.148 1530.45 247.842Z"
              fill="#168C12"/>
        <path d="M430.891 569.498L425.295 495.452L447.565 455.888C450.93 456.588 454.282 456.868 457.788 456.868C485.526 456.868 508.076 434.356 508.076 406.664C508.076 399.524 506.533 392.818 504.009 386.812C508.216 381.212 510.6 373.946 510.6 366.106C510.6 345.414 493.786 328.628 473.059 328.628C467.169 328.628 461.574 330.028 456.526 332.408C455.46 328.222 453.511 324.358 450.902 320.984C450.65 329.062 448.56 336.972 444.76 344.014C447.004 350.734 448.126 357.86 448.126 365.126C448.126 402.184 417.863 432.396 380.757 432.396C378.934 432.396 377.251 432.256 375.428 432.116L368.697 444.114C373.717 446.284 379.27 447.488 385.09 447.488C387.053 447.488 389.017 447.348 390.84 447.068L408.762 480.22C408.383 498.448 403.896 555.232 402.928 567.188C389.9 566.362 376.157 565.774 361.895 565.466C360.97 565.452 360.03 565.438 359.077 565.41C356.244 565.368 353.383 565.326 350.494 565.298L344.464 464.134L369.258 419.95C372.904 420.65 376.69 421.07 380.603 421.07C411.707 421.07 436.781 395.898 436.781 364.986C436.781 357.16 435.098 349.614 432.153 342.754C436.781 336.048 439.445 327.928 439.445 319.122C439.445 296.05 420.668 277.318 397.557 277.318C390.98 277.318 384.81 278.718 379.214 281.504C375.148 265.572 359.329 253 341.113 253C323.331 253 308.901 264.872 304.694 280.244C301.048 278.858 297.135 278.158 292.928 278.158C274.151 278.158 259.034 293.39 259.034 311.996C259.034 319.822 261.684 327.088 266.171 332.828C258.332 341.074 253.564 352.134 253.564 364.44C253.564 389.878 274.151 410.444 299.645 410.444C301.889 410.444 303.993 410.304 306.096 410.024L326.122 447.068C325.631 466.808 320.905 545.404 319.685 565.368C317.792 565.396 315.899 565.438 314.019 565.466V565.55C300.851 565.872 288.132 566.432 276.044 567.202C275.02 554.42 270.603 498.546 270.238 480.64L288.16 447.502C289.983 447.768 291.947 447.922 293.91 447.922C300.304 447.922 306.363 446.466 311.734 443.862L299.645 421.63C267.994 421.63 242.36 395.898 242.36 364.44C242.36 352.694 245.866 341.494 252.442 331.988C249.231 325.842 247.689 318.982 247.689 311.996C247.689 310.96 247.731 309.924 247.787 308.902C235.32 311.814 225.475 321.082 222.474 332.828C217.426 330.308 211.971 329.062 205.941 329.062C185.214 329.062 168.4 345.834 168.4 366.526C168.4 373.946 170.784 381.212 174.991 387.232C172.327 393.378 170.924 400.098 170.924 407.084C170.924 434.776 193.474 457.288 221.212 457.288C224.718 457.288 228.07 456.868 231.435 456.308L253.705 495.886L248.137 569.498C195.381 574.846 160 584.688 160 596H519C519 584.674 483.661 574.846 430.891 569.498ZM253.985 477.98L240.677 453.508C245.585 451.408 250.199 448.608 254.125 445.122C254.266 444.982 254.406 444.982 254.546 444.842C254.406 450.148 254.125 470.014 253.985 477.98ZM269.537 442.462H269.958C272.622 443.862 275.553 444.982 278.638 445.682L269.818 463.294C269.677 458.394 269.537 445.542 269.537 442.462ZM325.995 427.552L316.179 407.952C319.545 407.112 322.91 405.852 325.855 404.312H326.276C326.276 407.672 326.136 422.092 325.995 427.552ZM343.104 406.972C343.384 407.112 343.525 407.112 343.665 407.252C348.152 411.172 353.201 414.252 358.67 416.632L343.805 443.932C343.525 434.972 343.384 412.712 343.104 406.972ZM409.182 463.294L400.362 445.682C403.447 444.982 406.378 443.862 409.042 442.462H409.463C409.323 445.542 409.323 458.394 409.182 463.294ZM424.454 444.842C424.594 444.982 424.734 444.982 424.875 445.122C428.801 448.608 433.415 451.408 438.323 453.508L425.015 477.98C424.875 470.014 424.594 450.148 424.454 444.842Z"
              fill="#168C12"/>
        <path d="M560.492 638.472C545.772 617.651 531.734 597.794 508.086 584.809C472.633 565.341 446.31 563.454 422.329 561.737C397.48 559.956 375.144 558.356 347.766 537.561C317.505 514.576 305.287 492.803 292.728 470.423C282.961 453.016 272.987 435.243 254.157 416.247C219.328 381.112 183.143 369 140.104 369H-3V787.848H1499.05V369H1355.95C1312.91 369 1276.73 381.112 1241.9 416.247C1223.07 435.243 1213.1 453.016 1203.33 470.423C1190.76 492.802 1178.55 514.576 1148.28 537.561C1120.91 558.356 1098.58 559.956 1073.72 561.737C1049.74 563.454 1023.42 565.341 987.968 584.809C964.321 597.794 950.283 617.651 935.562 638.472C905.406 681.125 872.386 727.83 748.027 727.83C623.668 727.83 590.648 681.125 560.492 638.472Z"
              fill="#0FA234"/>
        <path d="M561.436 694.786C546.715 673.965 532.678 654.108 509.03 641.124C473.577 621.655 447.254 619.768 423.273 618.051C398.424 616.27 376.088 614.67 348.71 593.875C318.449 570.89 306.23 549.117 293.672 526.737C283.905 509.331 273.931 491.557 255.1 472.562C220.271 437.426 184.087 425.314 141.048 425.314H-2.05627V844.162H1500V425.314H1356.89C1313.85 425.314 1277.68 437.426 1242.84 472.562C1224.01 491.557 1214.04 509.331 1204.27 526.737C1191.71 549.116 1179.49 570.89 1149.23 593.875C1121.85 614.67 1099.52 616.27 1074.67 618.051C1050.69 619.768 1024.37 621.655 988.912 641.124C965.264 654.108 951.227 673.965 936.506 694.786C906.35 737.439 873.33 784.144 748.971 784.144C624.612 784.144 591.592 737.439 561.436 694.786Z"
              fill="#784C2B"/>
        <g clip-path="url(#clip1_2_6)">
            <path d="M209.256 554.423L234.729 617.471C236.481 621.806 234.367 626.785 230.032 628.536L206.389 638.089L225.494 685.375C227.245 689.71 225.132 694.689 220.797 696.44L141.987 728.282C137.652 730.033 132.673 727.92 130.921 723.585L111.817 676.299L88.1733 685.851C83.8388 687.602 78.8594 685.489 77.1081 681.154L51.6349 618.106C44.5979 600.688 53.0054 580.882 70.4225 573.845L164.995 535.635C182.412 528.598 202.219 537.005 209.256 554.423Z"
                  fill="#409EC6"/>
            <path d="M212.758 653.851L118.185 692.061L124.553 707.823L219.126 669.613L212.758 653.851Z" fill="#2641A8"/>
            <path d="M152.733 549.757C152.764 549.836 152.764 549.836 152.796 549.915C152.828 549.993 152.828 549.993 152.86 550.072C152.987 550.387 153.115 550.703 153.164 551.049C159.379 568.249 150.78 587.583 133.757 594.46C116.734 601.338 97.1182 593.404 89.6418 576.714C89.4356 576.431 89.3083 576.115 89.1809 575.8C89.1491 575.721 89.1491 575.721 89.1172 575.643C89.0857 575.564 89.0857 575.564 89.0535 575.485C88.9262 575.17 88.7988 574.854 88.7495 574.508C87.8738 572.111 87.3126 569.588 87.0515 567.126L148.366 542.353C149.888 544.305 151.238 546.511 152.272 548.843C152.478 549.126 152.605 549.442 152.733 549.757Z"
                  fill="#2641A8"/>
            <path d="M70.4225 573.845L111.817 676.299L88.1733 685.851C83.8388 687.602 78.8594 685.489 77.1081 681.154L51.6349 618.106C44.5979 600.688 53.0054 580.882 70.4225 573.845Z"
                  fill="#FBA833"/>
            <path d="M209.256 554.423L234.729 617.471C236.481 621.806 234.367 626.785 230.032 628.536L206.389 638.089L164.995 535.635C182.412 528.598 202.219 537.005 209.256 554.423Z"
                  fill="#FBA833"/>
        </g>
        <ellipse cx="239" cy="105" rx="21" ry="26" fill="#F6EF73"/>
        <ellipse cx="83" cy="105" rx="21" ry="26" fill="#F6EF73"/>
        <path d="M274.177 95.157C274.177 87.6994 264.271 81.3424 250.378 78.9005V70.5731H245.952C242.67 47.6671 222.929 30 199.129 30C183.19 30 169.076 37.9325 160.5 50.0482C151.924 37.9325 137.811 30 121.871 30C98.0714 30 78.3296 47.6671 75.0482 70.5731H70.6219V78.9005C56.7301 81.3424 46.8227 87.6994 46.8227 95.157H59.3907C58.9601 97.6319 58.7275 100.176 58.7275 102.751C58.7275 120.959 69.7243 135.772 83.2411 135.772C96.758 135.772 107.755 120.959 107.755 102.751C107.755 100.176 107.522 97.6319 107.092 95.157H119.66C119.66 87.6994 109.753 81.3424 95.8604 78.9005V70.5731H92.6954C95.7614 57.2941 107.674 47.3615 121.871 47.3615C138.384 47.3615 151.819 60.7968 151.819 77.3102V345.749H136.247C118.984 345.749 104.996 359.742 104.996 377H216.002C216.002 359.742 202.015 345.749 184.756 345.749H169.181V77.3102C169.181 60.7968 182.616 47.3615 199.129 47.3615C213.327 47.3615 225.239 57.2941 228.305 70.5731H225.14V78.9005C211.248 81.3424 201.34 87.6994 201.34 95.157H213.908C213.478 97.6319 213.245 100.176 213.245 102.751C213.245 120.959 224.242 135.772 237.759 135.772C251.276 135.772 262.273 120.959 262.273 102.751C262.273 100.176 262.04 97.6319 261.61 95.157H274.177ZM100.811 102.75C100.811 117.128 92.9297 128.826 83.242 128.826C73.5543 128.826 65.6721 117.129 65.6721 102.75C65.6721 100.155 65.9412 97.6033 66.4517 95.1561H100.031C100.542 97.6033 100.811 100.155 100.811 102.75ZM255.329 102.75C255.329 117.128 247.447 128.826 237.76 128.826C228.072 128.826 220.191 117.129 220.191 102.75C220.191 100.155 220.46 97.6033 220.97 95.1561H254.55C255.06 97.6033 255.329 100.155 255.329 102.75Z"
              fill="#272727"/>
        <path d="M192.775 295.986C230.152 295.986 263.491 310.889 285.192 334.105L192.775 295.986Z" fill="#AEBCC3"/>
        <path d="M-132.986 377.745C-127.969 386.652 -118.113 392.678 -106.742 392.678H257.227C273.852 392.678 287.3 379.853 287.3 364.03V355.955H270.319C268.392 355.995 266.527 355.271 265.131 353.942C263.735 352.613 262.922 350.786 262.867 348.859V315.55C242.097 302.183 217.92 295.072 193.22 295.066H193.963L168.431 294.947C143.553 241.509 95.3703 197.186 31.9578 197.186C-31.3656 197.186 -84.4766 238.808 -98.9344 294.917H-106.742C-123.189 294.917 -132.778 307.623 -132.778 323.298"
              fill="#9517A1"/>
        <path d="M-88.7812 377.745C-88.7812 389.658 -83.8143 401.083 -74.9732 409.507C-66.132 417.93 -54.1408 422.662 -41.6375 422.662C-29.1342 422.662 -17.143 417.93 -8.30183 409.507C0.53933 401.083 5.50626 389.658 5.50626 377.745C5.50626 365.833 0.53933 354.408 -8.30183 345.984C-17.143 337.56 -29.1342 332.828 -41.6375 332.828C-54.1408 332.828 -66.132 337.56 -74.9732 345.984C-83.8143 354.408 -88.7812 365.833 -88.7812 377.745Z"
              fill="#455963"/>
        <path d="M139.456 377.745C139.456 389.658 144.42 401.083 153.256 409.507C162.091 417.93 174.075 422.662 186.57 422.662C199.066 422.662 211.049 417.93 219.885 409.507C228.721 401.083 233.684 389.658 233.684 377.745C233.684 365.833 228.721 354.408 219.885 345.984C211.049 337.56 199.066 332.828 186.57 332.828C174.075 332.828 162.091 337.56 153.256 345.984C144.42 354.408 139.456 365.833 139.456 377.745Z"
              fill="#455963"/>
        <path d="M166.769 377.745C166.769 382.761 168.858 387.571 172.577 391.117C176.296 394.664 181.34 396.656 186.6 396.656C191.86 396.656 196.904 394.664 200.623 391.117C204.342 387.571 206.431 382.761 206.431 377.745C206.431 372.73 204.342 367.92 200.623 364.373C196.904 360.827 191.86 358.834 186.6 358.834C181.34 358.834 176.296 360.827 172.577 364.373C168.858 367.92 166.769 372.73 166.769 377.745Z"
              fill="#AEBCC3"/>
        <path d="M285.222 334.194V334.105C278.552 327.035 271.045 320.804 262.867 315.55V348.859C262.867 352.778 266.222 355.955 270.319 355.955H287.3V336.331L285.222 334.194Z"
              fill="#F5BB1D"/>
        <path d="M25.1297 215.681C-23.5281 218.62 -63.6062 251.306 -75.3625 294.917H25.1297V215.681ZM43.7438 294.917H144.236C125.117 254.631 89.9078 220.877 43.7438 216.038V294.917Z"
              fill="#409EC6"/>
        <path d="M414.381 716.396C417.199 719.214 422.111 720.673 425.953 719.611C427.986 719.048 430.448 718.956 431.94 720.448L453.552 742.06C455.044 743.552 454.952 746.014 454.389 748.047C453.327 751.889 454.786 756.801 457.604 759.619C461.335 763.349 467.382 763.349 471.112 759.619C474.842 755.889 474.842 749.842 471.112 746.112C474.842 749.842 480.889 749.842 484.619 746.112C488.349 742.382 488.349 736.334 484.619 732.604C481.801 729.786 476.889 728.327 473.047 729.389C471.014 729.952 468.552 730.044 467.06 728.552L445.448 706.94C443.956 705.448 444.048 702.986 444.611 700.953C445.673 697.111 444.214 692.199 441.396 689.381C437.666 685.651 431.618 685.651 427.888 689.381C424.158 693.111 424.158 699.158 427.888 702.888C424.158 699.158 418.111 699.158 414.381 702.888C410.651 706.618 410.651 712.665 414.381 716.396Z"
              fill="#F9FFA8"/>
        <g clip-path="url(#clip2_2_6)">
            <rect x="1319.17" y="548" width="105.538" height="151.725" transform="rotate(25 1319.17 548)" fill="white"/>
            <path d="M1367.64 694.681L1271.99 650.079L1255 686.51L1350.65 731.112L1367.64 694.681Z" fill="#808080"/>
            <path d="M1272.71 658.92L1265.83 673.665C1264.62 676.271 1264.49 679.252 1265.47 681.954C1266.45 684.655 1268.47 686.855 1271.07 688.07L1339.84 720.137C1342.45 721.352 1345.43 721.482 1348.13 720.499C1350.83 719.515 1353.03 717.499 1354.25 714.894L1361.12 700.148L1272.71 658.92ZM1277.29 649.096L1365.7 690.324L1404.64 606.821C1405.86 604.216 1405.99 601.235 1405 598.533C1404.02 595.832 1402 593.632 1399.4 592.417L1330.63 560.35C1328.03 559.135 1325.04 559.005 1322.34 559.988C1319.64 560.971 1317.44 562.988 1316.23 565.593L1277.29 649.096ZM1261.59 695.594C1257.68 693.771 1254.65 690.471 1253.18 686.419C1251.7 682.367 1251.9 677.895 1253.72 673.986L1308.69 556.1C1310.52 552.192 1313.82 549.168 1317.87 547.693C1321.92 546.218 1326.39 546.413 1330.3 548.236L1408.89 584.883C1412.8 586.706 1415.82 590.006 1417.3 594.058C1418.77 598.11 1418.58 602.582 1416.76 606.49L1361.78 724.377C1359.96 728.285 1356.66 731.309 1352.61 732.784C1348.56 734.259 1344.08 734.064 1340.18 732.241L1261.59 695.594ZM1318.56 695.249C1317.65 697.204 1316 698.716 1313.97 699.453C1311.94 700.19 1309.71 700.093 1307.75 699.182C1305.8 698.27 1304.29 696.62 1303.55 694.594C1302.81 692.568 1302.91 690.332 1303.82 688.378C1304.73 686.424 1306.38 684.912 1308.41 684.174C1310.43 683.437 1312.67 683.535 1314.62 684.446C1316.58 685.357 1318.09 687.007 1318.83 689.033C1319.57 691.059 1319.47 693.295 1318.56 695.249Z"
                  fill="#272727"/>
            <g clip-path="url(#clip3_2_6)">
                <path d="M1378.81 639.215C1369.66 658.828 1346.07 667.191 1326.13 657.889C1306.17 648.585 1297.42 625.138 1306.56 605.525C1315.71 585.906 1339.3 577.541 1359.25 586.845C1379.2 596.148 1387.96 619.595 1378.81 639.215Z"
                      fill="#272727"/>
                <path d="M1341.82 620.928L1329.35 647.667L1318.57 642.641L1331.13 615.708C1337.78 601.453 1347.5 596.026 1357.79 600.825L1362.07 602.817L1356.18 615.45L1351.9 613.458C1348.56 611.899 1345.71 612.603 1341.82 620.928Z"
                      fill="#FFF043"/>
                <path d="M1345.29 613.498L1353.5 595.89L1342.72 590.863L1334.45 608.599C1330.07 617.987 1333.47 626.129 1343.76 630.928L1348.03 632.92L1351.91 624.6L1347.64 622.608C1344.29 621.049 1342.73 618.981 1345.29 613.498Z"
                      fill="#FFF043"/>
                <path d="M1342.13 634.567C1353.1 639.684 1366.15 634.936 1371.26 623.964C1376.38 612.991 1371.63 599.947 1360.66 594.831C1349.69 589.714 1336.64 594.461 1331.53 605.434C1326.41 616.407 1331.16 629.45 1342.13 634.567Z"
                      fill="#272727"/>
                <path d="M1343.81 630.955C1352.79 635.141 1363.46 631.257 1367.65 622.279C1371.84 613.301 1367.95 602.63 1358.97 598.443C1350 594.257 1339.33 598.141 1335.14 607.119C1330.95 616.097 1334.84 626.768 1343.81 630.955Z"
                      fill="white"/>
                <path d="M1358.73 600.53C1358.89 600.198 1358.75 599.802 1358.41 599.647C1358.08 599.492 1357.69 599.636 1357.53 599.969L1351.35 613.214C1351.2 613.547 1351.34 613.942 1351.68 614.097C1352.01 614.252 1352.4 614.108 1352.56 613.776L1358.73 600.53Z"
                      fill="#272727"/>
                <path d="M1352.51 615.809C1352.38 615.464 1352 615.286 1351.65 615.412C1351.31 615.537 1351.13 615.919 1351.26 616.263L1354.44 625.003C1354.56 625.348 1354.94 625.525 1355.29 625.4C1355.63 625.274 1355.81 624.893 1355.69 624.548L1352.51 615.809Z"
                      fill="#272727"/>
                <path d="M1350.55 616.505C1351.55 616.97 1352.74 616.539 1353.2 615.541C1353.67 614.544 1353.23 613.358 1352.24 612.893C1351.24 612.428 1350.05 612.859 1349.59 613.857C1349.12 614.854 1349.55 616.04 1350.55 616.505Z"
                      fill="#272727"/>
            </g>
        </g>
        <path d="M276.344 352.368C259.8 347.727 259.8 324.273 276.344 319.632L622.408 222.546C633.25 219.504 644 227.653 644 238.914V433.086C644 444.347 633.25 452.496 622.408 449.454L276.344 352.368Z"
              fill="#FFF043" fill-opacity="0.3"/>
    </g>
    <path d="M68.7459 126.783C72.6102 109.358 97.2846 108.901 101.792 126.171L174.943 406.457C177.754 417.228 169.626 427.75 158.494 427.75H23.1832C12.3104 427.75 4.23232 417.684 6.58639 407.069L68.7459 126.783Z"
          fill="#FFF043" fill-opacity="0.3"/>
    <path d="M222.632 116.344C227.273 99.8002 250.727 99.8001 255.368 116.344L352.454 462.408C355.496 473.25 347.347 484 336.086 484H141.914C130.653 484 122.504 473.25 125.546 462.408L222.632 116.344Z"
          fill="#FFF043" fill-opacity="0.3"/>
    <defs>
        <clipPath id="clip0_2_6">
            <rect width="1500" height="800" fill="white"/>
        </clipPath>
        <clipPath id="clip1_2_6">
            <rect width="204" height="204" fill="white" transform="translate(16.7678 577.188) rotate(-22)"/>
        </clipPath>
        <clipPath id="clip2_2_6">
            <rect width="173.431" height="173.431" fill="white" transform="translate(1293.3 525) rotate(25)"/>
        </clipPath>
        <clipPath id="clip3_2_6">
            <rect width="79.7167" height="78.3881" fill="white" transform="translate(1323.13 570) rotate(25)"/>
        </clipPath>
    </defs>
</svg>